<svg xmlns="http://www.w3.org/2000/svg" viewBox="0 0 269.75 269.75"><defs><style>.cls-1{fill:#77aad4;}.cls-2{font-size:27.04px;font-family:Nutmeg-Black, Nutmeg;font-weight:800;}.cls-2,.cls-5{fill:#fff;}.cls-3{letter-spacing:-0.01em;}.cls-4{letter-spacing:-0.01em;}</style></defs><title>Recurso 5DE</title><g id="Capa_2" data-name="Capa 2"><g id="Capa_1-2" data-name="Capa 1"><circle class="cls-1" cx="134.88" cy="134.88" r="134.88"/><text class="cls-2" transform="translate(65.21 193.59)">Dens<tspan class="cls-3" x="71.92" y="0">i</tspan><tspan x="79.98" y="0">d</tspan><tspan class="cls-4" x="99.83" y="0">a</tspan><tspan x="119.48" y="0">d</tspan><tspan x="-9.79" y="32.45">Económ</tspan><tspan class="cls-3" x="104.42" y="32.45">i</tspan><tspan x="112.48" y="32.45">ca</tspan></text><path class="cls-5" d="M137,70a1.36,1.36,0,0,1-.58-.13,1.4,1.4,0,0,1-.69-1.86l.41-.88L136,65.54a1.41,1.41,0,0,1,.53-1.19l2.06-1.64a1.39,1.39,0,0,1,1.5-.16.92.92,0,0,0,.52.06,11.13,11.13,0,0,0,.14-4c-.59-1.42,2.49-5.88,3.19-6.26.1-.06.35-.18.66-.32a19.4,19.4,0,0,0,1.82-.92,1.52,1.52,0,0,1,.61-.54,3,3,0,0,1,2.37.18,4.54,4.54,0,0,0,.43.15,3.73,3.73,0,0,0,1-.1c.1-.62.21-1.25.21-1.26a1.42,1.42,0,0,1,1.2-1.16.34.34,0,0,0,.11,0,2.46,2.46,0,0,0-.3-1.2,2,2,0,0,1-.21-.52,4.14,4.14,0,0,1,.87-3.23,9.12,9.12,0,0,0,.8-1.1h0a1.43,1.43,0,0,1-.54-.13l-2.53-1.19a1.38,1.38,0,0,1-.8-1.07,1.4,1.4,0,0,1,.47-1.26,2.5,2.5,0,0,0,.23-.23,11.88,11.88,0,0,0-1.43-.58l-.17-.06a4.33,4.33,0,0,1-2.33-2.17,2.68,2.68,0,0,0-.34-.39c-.38.75-.82,1.45-.94,1.65a1.47,1.47,0,0,1-.31.35,5,5,0,0,0-.69.69,16.94,16.94,0,0,0,.7,1.67,2.61,2.61,0,0,1,1,1.26A1.91,1.91,0,0,1,145.6,43a1.77,1.77,0,0,1-1.41.46c0,.12-.05.25-.07.37a3.62,3.62,0,0,1-1,2.38,1.76,1.76,0,0,1-1.94.11l-.1,0a18.55,18.55,0,0,0-2.41.42A1.4,1.4,0,0,1,137,45.31l.12-3.2a1.54,1.54,0,0,1,0-.31l1.27-4.69a11.88,11.88,0,0,0,.38-2.62,1.75,1.75,0,0,0-.79-.63,9.19,9.19,0,0,1-1.23,0c-2.28,12.67-2.83,12.67-4.1,12.67a1.61,1.61,0,0,1-1.12-.51c-.39-.45-.94-1.06,0-9.16l0-3.11a1.41,1.41,0,0,1,.71-1.23c.42-.24,1.29-1,1.34-1.65,0-.34.05-.66.08-.94l0-.35L129.09,29c0,.14,0,.31,0,.52,0,.75-.13,1.57-.22,2.35s-.19,1.68-.19,2.28h0a2.47,2.47,0,0,1,1.94,1,1.86,1.86,0,0,1,.22,1.61,2.53,2.53,0,0,0-.06.49,3.11,3.11,0,0,1-2.66,3.18c-2.5.43-5.56,1.2-6.73,1.95s-2.26,3-2.44,5.22a7.06,7.06,0,0,0,1.79,4.77,5.73,5.73,0,0,0,.84.62,3.61,3.61,0,0,1,2,2.57c0,.36,0,.9,0,1.46a15.61,15.61,0,0,0,.06,1.89c.76,1.25,0,3.29-1,4.31,0,.23.1.95,1.07,1.3,4.18,1.54,5.06,2.21,5.36,3.06A1.55,1.55,0,0,1,129,68.9a1.4,1.4,0,0,1-1.92.5,1.47,1.47,0,0,1-.59-.67,22.45,22.45,0,0,0-3.7-1.58,4.37,4.37,0,0,1-2.83-3.08,3,3,0,0,1,.68-2.78,2.4,2.4,0,0,0,.55-1.11,7.44,7.44,0,0,1-.35-3.19c0-.41,0-.8,0-1.1a6.1,6.1,0,0,0-.78-.56,6.39,6.39,0,0,1-1.4-1.09,9.83,9.83,0,0,1-2.51-6.87c.25-3.18,1.71-6.07,3.72-7.36s6.47-2.13,7.78-2.35a.56.56,0,0,0,.25-.08A4.34,4.34,0,0,0,128,37v0a4.83,4.83,0,0,1-.78-.18c-1.65-.58-1.42-2.59-1.14-5.14.09-.73.17-1.49.2-2.17.05-1.14.25-2.52,1.31-3.09a1.72,1.72,0,0,1,1.29-.15c.83.09,4.86.53,5.72.61a2.07,2.07,0,0,1,1.46.72,3.33,3.33,0,0,1,.42,2.64c0,.24-.05.5-.07.78a13.48,13.48,0,0,0,1.53.12,4.07,4.07,0,0,1,3.47,2.35c.44,1,.11,2.94-.25,4.4l-1.24,4.57,0,1.26c.4-.07.78-.12,1.07-.14a3,3,0,0,1,.43,0l0-.17a8.66,8.66,0,0,1,.32-1.35,1.86,1.86,0,0,1,.77-1,12.45,12.45,0,0,1-1.08-2.63c-.4-1.28.7-2.5,1.53-3.21a11.71,11.71,0,0,0,1-2,1.73,1.73,0,0,1,1.7-1.26c1.34,0,3.06,1.69,3.45,2.75a3.75,3.75,0,0,0,.82.54,10.14,10.14,0,0,1,2.93,1.48,1.9,1.9,0,0,1,.66,1.48,2.4,2.4,0,0,1-.25,1l.71.33a3.31,3.31,0,0,1,2.36,1.18c.73,1.06.26,2.59-1.4,4.53a1.23,1.23,0,0,0-.24.75,5.13,5.13,0,0,1,.53,2.48,2.75,2.75,0,0,1-1.46,2.38c-.05.31-.11.65-.16.94a1.94,1.94,0,0,1-.9,1.3,5.44,5.44,0,0,1-3.45.58,6.56,6.56,0,0,1-.75-.23l-.27-.1a13.78,13.78,0,0,1-2.41,1.27l-.32.15a20.92,20.92,0,0,0-1.95,3.39c.26,1.45.41,5.26-.91,6.52a3.12,3.12,0,0,1-2.83.75l-.91.73.08,1.25a1.45,1.45,0,0,1-.13.68l-.55,1.2A1.4,1.4,0,0,1,137,70Zm-10.44-2.56h0Zm14.05-4.82Zm-19.28-2.23Zm22.08-2.81a1.37,1.37,0,0,1,.08.26A1.53,1.53,0,0,0,143.41,57.62Zm5.53-5.31a0,0,0,0,1,0,0A0,0,0,0,0,148.94,52.31Zm-2.53-16.85Zm2.72-.69h0Z"/><path class="cls-5" d="M165.44,103.6a1.4,1.4,0,0,1-.64-2.65,9.67,9.67,0,0,0,1.23-.8,3.51,3.51,0,0,1,1.18-.67,24.07,24.07,0,0,0,2.89-1.15c.78-.78,2.48-1.19,4.46-1.08a5.61,5.61,0,0,0,2.72-.52c.5-.18,1.06-.38,1.76-.57a4.07,4.07,0,0,0,2.44-1.45,4.82,4.82,0,0,1,1.83-3.58,2.94,2.94,0,0,0,.77-2.09,2.42,2.42,0,0,0-1-1c-1.48-.5-2.82-1.7-2.61-3.34a5.41,5.41,0,0,1,1.25-2.8,9.34,9.34,0,0,0,1.23-1.63,11.12,11.12,0,0,1,.74-1.28,12.26,12.26,0,0,0,1.52-3,7.47,7.47,0,0,1,2.56-3.75A13.41,13.41,0,0,0,189,71.05a1.46,1.46,0,0,1,2.2-.75,5.48,5.48,0,0,1,1.73-.91h0l.17-.18a10.37,10.37,0,0,0,1.45-1.61,4.09,4.09,0,0,0-.33-1.72,9.11,9.11,0,0,0-.74-.79,5.65,5.65,0,0,1-1.93-2.75c-.06-.43-.27-1.73,3.11-4.17a4.86,4.86,0,0,0,.42-.62,3.44,3.44,0,0,0-.87-.6,1.41,1.41,0,0,1-.16-2.47l2.48-1.55a.61.61,0,0,1,.05-.12l-.22,0c-1.11.21-3.17.59-4-1.45-.41-.76-3.65-2.56-4.54-2.63h0a5.61,5.61,0,0,1-1.18-.16l-.37-.07a1.91,1.91,0,0,0-.1.23c-.59,1.67-.91,2.09-1.69,2.66l-.33.26a5.34,5.34,0,0,0-.91.95l-.12.16a1.84,1.84,0,0,1-1.32.62,1.5,1.5,0,0,0-.46.09c-.47,1.75-3.74,4.81-5.13,6a1.4,1.4,0,0,1-1.05.35,19,19,0,0,1-5.11-1.21c-.48-.19-1-.44-1.51-.69-1.62-.78-3.46-1.67-4.75-1.31-.83.23-1.7.75-1.88,2.9,0,.24,0,.48-.08.71s-.06.6-.07.83a6,6,0,0,1,2.41,1.19l.62.21a1.39,1.39,0,0,1,.91,1.7l-.13.46a1.4,1.4,0,0,1-.68.86l-.31.17a1.79,1.79,0,0,1-1,1.5,2.7,2.7,0,0,1-1,.23,3.5,3.5,0,0,0-.41,0,1,1,0,0,0,0,.15A2,2,0,0,1,161,70a4.6,4.6,0,0,1-1.29.38,2.25,2.25,0,0,1-1.35,1.58,3,3,0,0,1-2.89-.49,4.9,4.9,0,0,0-1.62-.29c0,.12-.07.23-.1.35a3.23,3.23,0,0,0-.22,1,1.4,1.4,0,1,1-2.79.31,5.24,5.24,0,0,1,.32-2.14,5.08,5.08,0,0,0,.2-.74,1.91,1.91,0,0,1,1.29-1.41,6.25,6.25,0,0,1,4.54.62,2.4,2.4,0,0,1,2.09-1.56l.28-.06a3.91,3.91,0,0,1,.07-.86,2.53,2.53,0,0,1,2.22-1.94,1.69,1.69,0,0,1,.2-.57,3.07,3.07,0,0,0-.89-.33c-2.38-.46-2.12-2.75-2-3.85,0-.2,0-.42.06-.64.3-3.62,2.31-4.91,3.93-5.37,2.3-.63,4.75.54,6.72,1.49.48.23.94.46,1.38.64a15.68,15.68,0,0,0,3.66.92,20.8,20.8,0,0,0,3.8-4.18,3,3,0,0,1,2.63-2.2,7.28,7.28,0,0,1,1.12-1.11c.18-.16.34-.28.47-.38s.31-.22.71-1.34a2.8,2.8,0,0,1,3.7-2,3.56,3.56,0,0,0,.62.1c1.52,0,6.11,2.25,7.07,4.26a6.24,6.24,0,0,0,1-.14,12.06,12.06,0,0,1,1.48-.2,2.07,2.07,0,0,1,1.9.9c.76,1.18.09,2.86-.37,3.76a1.33,1.33,0,0,1-.5.55l-1.1.69a.86.86,0,0,1,.13.14c1.17,1.3.31,3.11-.78,4.26l-.2.18a12.2,12.2,0,0,0-2,1.72c.24.27.71.74,1,1a8.06,8.06,0,0,1,1.19,1.36,6.78,6.78,0,0,1,.69,3.63c-.11.86-.84,1.72-2.25,3.12l-.23.24a2.08,2.08,0,0,1-1,.61,2.57,2.57,0,0,0-1,.53,2.29,2.29,0,0,1-2,.6c-.29.33-.68.73-1.21,1.23l-.08.07A5.05,5.05,0,0,0,188,76.59a13.23,13.23,0,0,1-1.9,3.94c-.22.34-.49.78-.56.93a11.57,11.57,0,0,1-1.73,2.39h0a2.78,2.78,0,0,0-.51,1.17,2.58,2.58,0,0,0,.78.44l.24.09c.41.22,2.47,1.39,2.6,3.3a5.63,5.63,0,0,1-1.84,4.5,2.08,2.08,0,0,0-.77,1.46c0,1.67-1.85,3.34-4.49,4.06-.6.16-1.09.34-1.54.5a8.54,8.54,0,0,1-3.85.68,4.61,4.61,0,0,0-2.34.3,14.52,14.52,0,0,1-4,1.81c-.1.06-.22.15-.37.26a12.27,12.27,0,0,1-1.61,1A1.42,1.42,0,0,1,165.44,103.6Zm2.56-1.43-.11,0Zm4.18-2-.09.1Zm-2.24-1.69,0,0Zm18.95-27Zm0-.06v0Zm0,0Zm3.89-1.91a.34.34,0,0,0-.08.09Zm2.54-11.77Z"/><path class="cls-5" d="M149.68,140.34a3,3,0,0,1-2.24-1.42v0a5.39,5.39,0,0,1-.72.71c-1.25,1-2.85.7-4.27.42l-.65-.13c-2.17-.38-2.18-2.5-2.18-3.19,0-.15,0-.29,0-.4a7.48,7.48,0,0,1-.2-4.31,9.12,9.12,0,0,0,.19-1.52,1.41,1.41,0,0,1,2.81.13,11.76,11.76,0,0,1-.27,2,4.85,4.85,0,0,0,.12,2.78,3.6,3.6,0,0,1,.16,1.28c0,.14,0,.33,0,.47l.56.11c.65.13,1.72.35,2,.16a4.77,4.77,0,0,0,.52-.56c1.13-1.31,2.23-1.53,3.28-.65a5.9,5.9,0,0,1,.88.95l.24.29.1,0c.36-.09,1.31-.34,1.36-.59.37-1.78,2.91-2.82,4.48-3.3a4.52,4.52,0,0,0,1.57-1.2c.56-1.56,3.36-3.08,4.07-3.4a2.2,2.2,0,0,1,1.77-.2,5.13,5.13,0,0,1,.69.37,8.4,8.4,0,0,0,1.52.81,5.61,5.61,0,0,0,.27-1,4.56,4.56,0,0,1,.69-1.81c0-.07.15-.33.23-.52a5.06,5.06,0,0,1,2.8-3.2,3.34,3.34,0,0,0,.78-.4l-.29-.11a3.36,3.36,0,0,1-1.9-1.42,5,5,0,0,1-.4-1.09c0-.12-.07-.28-.11-.4h0l-.19,0c-1.28.19-2.2.33-3-.32a2.36,2.36,0,0,1-.76-1.8,2.25,2.25,0,0,0-.86-1.2,1.94,1.94,0,0,1-1.59-1.48,2.69,2.69,0,0,1,.94-2.76,3.76,3.76,0,0,0,.41-1.63v-.26a8.15,8.15,0,0,0-.21-1.82,1.4,1.4,0,0,1-.82-1.46,1.38,1.38,0,0,1,1.56-1.21c2.11.26,2.22,3,2.27,4.38v.23a5.9,5.9,0,0,1-1.1,3.62,5,5,0,0,1,2.14,3l.58-.08.2,0a2.8,2.8,0,0,1,3.26,2.43,3.8,3.8,0,0,0,.15.47l.44.16a3.55,3.55,0,0,1,1.81,1.24,2.5,2.5,0,0,1,.34,2.18,4,4,0,0,1-2.65,2.34c-.58.21-.85.78-1.19,1.62a4.8,4.8,0,0,1-.59,1.15,4.62,4.62,0,0,0-.18.72,5.89,5.89,0,0,1-.95,2.4c-1.36,1.8-3.78.36-5-.39a8.44,8.44,0,0,0-2.51,1.82c-.51,1.41-2.46,2.46-3,2.75l-.22.08a7.49,7.49,0,0,0-2.67,1.31c-.45,1.87-2.35,2.37-3.37,2.64l-.36.1A2.24,2.24,0,0,1,149.68,140.34Zm4.4-2.93Zm-11.62-.08h0Zm21.17-22.57h0Z"/><path class="cls-5" d="M115.8,136.22a2.13,2.13,0,0,1-.39,0c-.19,0-.8-.22-1.58-.46a49.27,49.27,0,0,0-4.76-1.29,3.25,3.25,0,0,1-3-2.12,2.94,2.94,0,0,0-1.4-.79c-1.18-.06-2.27-.78-4.43-2.27s-3.81-4.74-4.29-6.19a9,9,0,0,0-1.64-2.22c-1-1.22-2.52-3-4.93-6.14-5.43-7-6-10-5.82-12.2,0-.17-.18-.37-.81-.94a13.48,13.48,0,0,1-1.95-2.08,5.16,5.16,0,0,1-.34-5.57,3.12,3.12,0,0,0,.15-.36c.76-2.17,6.14-2.73,7.16-2.67a9.38,9.38,0,0,0,3.54-1.23,2.42,2.42,0,0,1-.49-.82A2,2,0,0,1,91,87a3.2,3.2,0,0,1,.62-.58,2.71,2.71,0,0,0,.4-.33c.55-1,3-4.62,4-5.91,1.7-2.18,4.46-2.18,5.5-2.18.65,0,.65,0,1.07-.71,1.3-2.16,6.4-2,6.45-2a3.6,3.6,0,0,1,2.44,1.59,5.89,5.89,0,0,0,.52.56,1.41,1.41,0,0,1,.3,2.79,3.2,3.2,0,0,1-3-1.54,4.14,4.14,0,0,0-.6-.63,8.55,8.55,0,0,0-3.79.73,3.45,3.45,0,0,1-3.43,2,4,4,0,0,0-3.28,1.11c-1.1,1.41-3.51,5.11-3.73,5.54A2,2,0,0,1,94,88a2.11,2.11,0,0,1,.86,1.46,2.15,2.15,0,0,1-1.34,2.15l-.46.24c-1.36.71-3.63,1.92-5.47,1.8a11.45,11.45,0,0,0-4.46,1c0,.11-.09.23-.14.35-.45,1-.7,1.76,0,2.78a10.37,10.37,0,0,0,1.56,1.64c.87.79,1.86,1.69,1.73,3.27-.08,1-.27,3.18,5.23,10.23,2.39,3.06,3.89,4.88,4.89,6.08,1.37,1.66,1.83,2.22,2.13,3.12a10.75,10.75,0,0,0,3.22,4.77,12.92,12.92,0,0,0,3,1.78,5.21,5.21,0,0,1,3.75,2.34c.27.54.27.54.7.57a39.07,39.07,0,0,1,5.37,1.4l1,.31a1.7,1.7,0,0,0,.46-.78,1.26,1.26,0,0,0-.1-.54,2.42,2.42,0,0,1,.2-2.21c.84-1.26,3-2,5.46-1.85a7.24,7.24,0,0,0,3.32-1.09,1.41,1.41,0,0,1,1.36,2.46,10,10,0,0,1-4.83,1.43,5.19,5.19,0,0,0-2.81.49,3.76,3.76,0,0,1,.18,1.66,4.47,4.47,0,0,1-1.74,2.82A2.33,2.33,0,0,1,115.8,136.22ZM92,86.14a.93.93,0,0,0,0,.1A.93.93,0,0,1,92,86.14Z"/><path class="cls-5" d="M134.68,112.83a7.73,7.73,0,0,1-7.72-7.72,1.41,1.41,0,0,1,2.81,0,4.91,4.91,0,1,0,4.91-4.91,7.72,7.72,0,1,1,7.72-7.71,1.41,1.41,0,0,1-2.81,0,4.91,4.91,0,1,0-4.91,4.91,7.72,7.72,0,1,1,0,15.43Z"/><path class="cls-5" d="M134.68,115.8a1.4,1.4,0,0,1-1.4-1.4V83.2a1.4,1.4,0,1,1,2.8,0v31.2A1.4,1.4,0,0,1,134.68,115.8Z"/><path class="cls-5" d="M134.68,125.94A27.14,27.14,0,1,1,161.82,98.8,27.18,27.18,0,0,1,134.68,125.94Zm0-51.47A24.33,24.33,0,1,0,159,98.8,24.35,24.35,0,0,0,134.68,74.47Z"/><path class="cls-5" d="M140.66,118.25a1.41,1.41,0,0,1-.44-2.74A17.63,17.63,0,0,0,151.4,93.26a1.39,1.39,0,0,1,.89-1.77,1.41,1.41,0,0,1,1.77.89,20.44,20.44,0,0,1-13,25.8A1.39,1.39,0,0,1,140.66,118.25Z"/><path class="cls-5" d="M122,86.07a1.41,1.41,0,0,1-.94-2.45,20.39,20.39,0,0,1,7.24-4.2,1.4,1.4,0,1,1,.88,2.66,17.62,17.62,0,0,0-6.24,3.63A1.4,1.4,0,0,1,122,86.07Z"/><path class="cls-5" d="M116.63,106.18a1.4,1.4,0,0,1-1.33-1,20.33,20.33,0,0,1,.91-15.11,1.4,1.4,0,0,1,1.86-.67,1.42,1.42,0,0,1,.68,1.87,17.5,17.5,0,0,0-.78,13,1.41,1.41,0,0,1-.9,1.77A1.31,1.31,0,0,1,116.63,106.18Z"/><path class="cls-5" d="M116.76,161.86A66.09,66.09,0,0,1,69.19,98.61h6a60.07,60.07,0,0,0,43.23,57.48Z"/><path class="cls-5" d="M73.7,98.61h-3a64.32,64.32,0,0,1,33.65-56.55l1.43,2.64A61.33,61.33,0,0,0,73.7,98.61Z"/><path class="cls-5" d="M135,166.68A68.1,68.1,0,0,1,116.14,164l2.91-10.11a57.6,57.6,0,0,0,73.51-55.31h10.52A68.15,68.15,0,0,1,135,166.68Z"/></g></g></svg>