<svg xmlns="http://www.w3.org/2000/svg" viewBox="0 0 157.21 200.43"><defs><style>.cls-1{fill:#041f28;}</style></defs><title>Recurso 3DE</title><g id="Capa_2" data-name="Capa 2"><g id="Capa_1-2" data-name="Capa 1"><path class="cls-1" d="M18,148.54c3.33,0,5.95.84,7.84,2.53a9.89,9.89,0,0,1,0,13.87c-1.89,1.68-4.51,2.53-7.84,2.53H10.54a.66.66,0,0,1-.75-.73V149.27a.65.65,0,0,1,.75-.73Zm-.11,14a4.77,4.77,0,0,0,3.43-1.23,4.8,4.8,0,0,0,0-6.57,4.77,4.77,0,0,0-3.43-1.23H15.74v9Z"/><path class="cls-1" d="M38.31,168a8.21,8.21,0,0,1-5.77-2,6.75,6.75,0,0,1-2.18-5.23,6.89,6.89,0,0,1,2.07-5.22,7.68,7.68,0,0,1,5.51-2,7.59,7.59,0,0,1,5.63,2,7,7,0,0,1,2,5.18v.56c0,.47-.27.71-.81.71H35.66a2.51,2.51,0,0,0,2.71,2,2.12,2.12,0,0,0,1.46-.52,1.67,1.67,0,0,1,1-.4h3.79a.69.69,0,0,1,.58.22.57.57,0,0,1,.07.56,5.66,5.66,0,0,1-2.49,3A8.54,8.54,0,0,1,38.31,168Zm-2.62-8.6h4.89a2.24,2.24,0,0,0-.79-1.47,2.47,2.47,0,0,0-1.64-.56,2.52,2.52,0,0,0-1.63.56A2.24,2.24,0,0,0,35.69,159.38Z"/><path class="cls-1" d="M58,153.57a5.79,5.79,0,0,1,4.21,1.54,5.4,5.4,0,0,1,1.6,4.08v7.55c0,.48-.25.73-.76.73H58.84a.77.77,0,0,1-.55-.21.69.69,0,0,1-.21-.52v-6.25a2.29,2.29,0,0,0-.47-1.54,1.7,1.7,0,0,0-1.34-.54,1.74,1.74,0,0,0-1.38.53,2.1,2.1,0,0,0-.49,1.5v6.3c0,.48-.25.73-.76.73H49.43c-.51,0-.76-.25-.76-.73v-7.25a1.52,1.52,0,0,0-.18-.88.82.82,0,0,0-.69-.23h-.27c-.52,0-.78-.16-.78-.59v-3a.82.82,0,0,1,.59-.81,6.38,6.38,0,0,1,2.52-.4,4.18,4.18,0,0,1,3.65,1.67A5.86,5.86,0,0,1,58,153.57Z"/><path class="cls-1" d="M72.57,168a9.91,9.91,0,0,1-5-1.12,4.36,4.36,0,0,1-2.33-3,.54.54,0,0,1,.11-.54.79.79,0,0,1,.59-.19h3.55a1.33,1.33,0,0,1,.86.48,2.69,2.69,0,0,0,2.16.68c.92,0,1.38-.23,1.38-.68s-.28-.55-.83-.69a18.14,18.14,0,0,0-2-.33,16.61,16.61,0,0,1-2.36-.45,3.92,3.92,0,0,1-2-1.31,4,4,0,0,1-.84-2.68,3.81,3.81,0,0,1,1.84-3.3,8.41,8.41,0,0,1,4.81-1.24,9.35,9.35,0,0,1,4.75,1.09,4.36,4.36,0,0,1,2.25,2.94.58.58,0,0,1-.14.54.87.87,0,0,1-.59.19H75.28a1,1,0,0,1-.82-.44,2,2,0,0,0-1.81-.73c-1,0-1.46.21-1.46.63s.3.57.9.74a17.7,17.7,0,0,0,2.15.45,19.29,19.29,0,0,1,2.52.55,4.51,4.51,0,0,1,2.17,1.37,3.75,3.75,0,0,1,.89,2.59A3.71,3.71,0,0,1,78,166.82,10.26,10.26,0,0,1,72.57,168Z"/><path class="cls-1" d="M84.55,152.57a3.23,3.23,0,0,1-2.3-.84,3,3,0,0,1,0-4.26,3.51,3.51,0,0,1,4.58,0,2.95,2.95,0,0,1,0,4.26A3.21,3.21,0,0,1,84.55,152.57Zm-2.11,14.9a.66.66,0,0,1-.76-.73v-12c0-.46.26-.7.76-.7h4.22c.5,0,.76.24.76.7v12a.66.66,0,0,1-.76.73Z"/><path class="cls-1" d="M107.94,166.84a.72.72,0,0,1-.6.84,11.19,11.19,0,0,1-2.59.3c-1.93,0-3.27-.58-4-1.73A5.55,5.55,0,0,1,96.2,168a6.79,6.79,0,0,1-5.08-2,7.94,7.94,0,0,1,0-10.42,6.78,6.78,0,0,1,5.08-2,5.77,5.77,0,0,1,3.65,1.11v-6.49c0-.49.26-.73.76-.73h4.22a.64.64,0,0,1,.73.73v13.92a1.43,1.43,0,0,0,.19.87.78.78,0,0,0,.65.24,2.17,2.17,0,0,0,.4,0q.74,0,.81.63ZM97.2,163.79a2.39,2.39,0,0,0,1.92-.81,3.79,3.79,0,0,0,0-4.42,2.37,2.37,0,0,0-1.92-.83,2.31,2.31,0,0,0-1.86.84,3.78,3.78,0,0,0,0,4.38A2.31,2.31,0,0,0,97.2,163.79Z"/><path class="cls-1" d="M127.79,166.84a.7.7,0,0,1-.6.84,10.87,10.87,0,0,1-2.49.3c-1.93,0-3.27-.54-4-1.57a7,7,0,0,1-4.62,1.57,6.77,6.77,0,0,1-5.08-2,7.94,7.94,0,0,1,0-10.42,6.76,6.76,0,0,1,5.08-2,5.57,5.57,0,0,1,3.87,1.32v-.11c0-.46.25-.7.75-.7h4a.64.64,0,0,1,.73.7V162a1.86,1.86,0,0,0,.16.93.66.66,0,0,0,.62.26,3.28,3.28,0,0,0,.49,0,.7.7,0,0,1,.81.63Zm-10.74-3.05A2.41,2.41,0,0,0,119,163a3.84,3.84,0,0,0,0-4.42,2.4,2.4,0,0,0-1.92-.83,2.3,2.3,0,0,0-1.86.84,3.73,3.73,0,0,0,0,4.38A2.3,2.3,0,0,0,117.05,163.79Z"/><path class="cls-1" d="M147.44,166.84a.71.71,0,0,1-.59.84,11.33,11.33,0,0,1-2.6.3c-1.93,0-3.27-.58-4-1.73a5.53,5.53,0,0,1-4.51,1.73,6.81,6.81,0,0,1-5.09-2,8,8,0,0,1,0-10.42,6.8,6.8,0,0,1,5.09-2,5.79,5.79,0,0,1,3.65,1.11v-6.49c0-.49.25-.73.76-.73h4.21a.64.64,0,0,1,.73.73v13.92a1.51,1.51,0,0,0,.19.87.78.78,0,0,0,.65.24,2.37,2.37,0,0,0,.41,0,.7.7,0,0,1,.81.63Zm-10.73-3.05a2.41,2.41,0,0,0,1.92-.81,3.84,3.84,0,0,0,0-4.42,2.4,2.4,0,0,0-1.92-.83,2.32,2.32,0,0,0-1.87.84,3.78,3.78,0,0,0,0,4.38A2.32,2.32,0,0,0,136.71,163.79Z"/><path class="cls-1" d="M15.22,184.91a.65.65,0,0,1-.73.73H6v2.57h7c.5,0,.75.23.75.7V192a.66.66,0,0,1-.75.73H6v2.51h8.54a.65.65,0,0,1,.73.73v3.19a.64.64,0,0,1-.73.73H.76c-.51,0-.76-.24-.76-.73V181.72c0-.49.25-.73.76-.73H14.49a.64.64,0,0,1,.73.73Z"/><path class="cls-1" d="M24.69,200.43a8.22,8.22,0,0,1-5.78-2,7.38,7.38,0,0,1,0-10.45,8.26,8.26,0,0,1,5.78-2,8.21,8.21,0,0,1,5,1.47,5.83,5.83,0,0,1,2.42,4A.59.59,0,0,1,32,192a.78.78,0,0,1-.58.21H27.85a1,1,0,0,1-.87-.62,2.31,2.31,0,0,0-2.27-1.33,2.64,2.64,0,0,0-2,.81,3,3,0,0,0-.77,2.14,3,3,0,0,0,.77,2.16,2.64,2.64,0,0,0,2,.81A2.24,2.24,0,0,0,27,194.83a1,1,0,0,1,.87-.6h3.52a.78.78,0,0,1,.58.21.6.6,0,0,1,.14.55,5.83,5.83,0,0,1-2.42,4A8.15,8.15,0,0,1,24.69,200.43Z"/><path class="cls-1" d="M41.4,200.43a8.15,8.15,0,0,1-5.74-2,7.4,7.4,0,0,1,0-10.45,8.19,8.19,0,0,1,5.74-2,8.25,8.25,0,0,1,5.77,2,7.35,7.35,0,0,1,0,10.45A8.21,8.21,0,0,1,41.4,200.43Zm0-4.46a2.83,2.83,0,0,0,2-.76,3,3,0,0,0,0-4,2.79,2.79,0,0,0-2-.76,2.83,2.83,0,0,0-2,4.76A2.71,2.71,0,0,0,41.4,196Z"/><path class="cls-1" d="M61.73,186A5.82,5.82,0,0,1,66,187.56a5.42,5.42,0,0,1,1.59,4.08v7.54a.65.65,0,0,1-.75.73H62.54a.72.72,0,0,1-.54-.2.7.7,0,0,1-.22-.53v-6.24a2.24,2.24,0,0,0-.47-1.54,1.68,1.68,0,0,0-1.34-.54,1.8,1.8,0,0,0-1.38.52,2.15,2.15,0,0,0-.48,1.5v6.3c0,.49-.26.73-.76.73H53.13c-.5,0-.76-.24-.76-.73v-7.24a1.51,1.51,0,0,0-.17-.88.85.85,0,0,0-.69-.23h-.27c-.53,0-.79-.16-.79-.6v-3a.82.82,0,0,1,.6-.81,6.16,6.16,0,0,1,2.51-.4,4.15,4.15,0,0,1,3.65,1.67A5.84,5.84,0,0,1,61.73,186Z"/><path class="cls-1" d="M77.22,200.43a8.11,8.11,0,0,1-5.73-2,7.4,7.4,0,0,1,0-10.45,8.14,8.14,0,0,1,5.73-2A8.27,8.27,0,0,1,83,188a7.38,7.38,0,0,1,0,10.45A8.24,8.24,0,0,1,77.22,200.43Zm0-4.46a2.79,2.79,0,0,0,2-.76,3,3,0,0,0,0-4,2.75,2.75,0,0,0-2-.76,2.61,2.61,0,0,0-2.76,2.76A2.61,2.61,0,0,0,77.22,196Zm-1.76-11.33a.58.58,0,0,1-.55-.26.61.61,0,0,1,0-.61l1.73-3.3a.89.89,0,0,1,.84-.54h4.11a.51.51,0,0,1,.46.87l-2.27,3.38a1,1,0,0,1-.87.46Z"/><path class="cls-1" d="M106.1,186a5.66,5.66,0,0,1,4.16,1.54,5.44,5.44,0,0,1,1.57,4.08v7.54a.65.65,0,0,1-.75.73h-4.25c-.5,0-.76-.24-.76-.73v-6.24a2.46,2.46,0,0,0-.42-1.54,1.43,1.43,0,0,0-1.2-.54,1.33,1.33,0,0,0-1.13.52,2.35,2.35,0,0,0-.41,1.5v6.3c0,.49-.25.73-.76.73H97.93a.65.65,0,0,1-.75-.73v-6.24a2.46,2.46,0,0,0-.42-1.54,1.63,1.63,0,0,0-2.41,0,2.35,2.35,0,0,0-.42,1.5v6.3a.65.65,0,0,1-.75.73H89c-.51,0-.76-.24-.76-.73v-7.24a1.49,1.49,0,0,0-.18-.88.82.82,0,0,0-.69-.23h-.27c-.52,0-.78-.16-.78-.6v-3a.82.82,0,0,1,.6-.81,6.13,6.13,0,0,1,2.51-.4A4.2,4.2,0,0,1,93,187.66,5.76,5.76,0,0,1,97.56,186a4.93,4.93,0,0,1,4.19,1.81A5.34,5.34,0,0,1,106.1,186Z"/><path class="cls-1" d="M117.05,185a3.23,3.23,0,0,1-2.3-.84,3,3,0,0,1,0-4.26,3.52,3.52,0,0,1,4.59,0,3,3,0,0,1,0,4.26A3.25,3.25,0,0,1,117.05,185Zm-2.11,14.89c-.5,0-.76-.24-.76-.73v-12c0-.47.26-.7.76-.7h4.22c.51,0,.76.23.76.7v12c0,.49-.25.73-.76.73Z"/><path class="cls-1" d="M129.62,200.43a8.21,8.21,0,0,1-5.77-2,7.35,7.35,0,0,1,0-10.45,9.33,9.33,0,0,1,10.76-.5,5.87,5.87,0,0,1,2.42,4,.57.57,0,0,1-.15.55.76.76,0,0,1-.58.21h-3.51a1,1,0,0,1-.87-.62,2.31,2.31,0,0,0-2.27-1.33,2.64,2.64,0,0,0-2,.81,2.94,2.94,0,0,0-.77,2.14,3,3,0,0,0,.77,2.16,2.64,2.64,0,0,0,2,.81,2.24,2.24,0,0,0,2.27-1.35,1,1,0,0,1,.87-.6h3.51a.76.76,0,0,1,.58.21.58.58,0,0,1,.15.55,5.87,5.87,0,0,1-2.42,4A8.16,8.16,0,0,1,129.62,200.43Z"/><path class="cls-1" d="M157.2,199.29a.69.69,0,0,1-.59.84,11.46,11.46,0,0,1-2.49.3c-1.93,0-3.27-.54-4-1.57a7.1,7.1,0,0,1-4.62,1.57,6.81,6.81,0,0,1-5.09-2,8,8,0,0,1,0-10.43,6.83,6.83,0,0,1,5.09-2,5.53,5.53,0,0,1,3.86,1.32v-.11c0-.47.26-.7.76-.7h4c.49,0,.73.23.73.7v7.25a1.83,1.83,0,0,0,.17.93.67.67,0,0,0,.62.26,3,3,0,0,0,.48,0c.49,0,.76.21.82.62Zm-10.73-3a2.41,2.41,0,0,0,1.92-.81,3.85,3.85,0,0,0,0-4.43,2.39,2.39,0,0,0-1.92-.82,2.32,2.32,0,0,0-1.87.84,3.78,3.78,0,0,0,0,4.38A2.32,2.32,0,0,0,146.47,196.24Z"/><path class="cls-1" d="M80.28,43.91a1.36,1.36,0,0,1-.58-.13A1.4,1.4,0,0,1,79,41.92l.41-.88-.11-1.63a1.38,1.38,0,0,1,.53-1.18l2.06-1.65a1.41,1.41,0,0,1,1.5-.16.84.84,0,0,0,.52.06,11.12,11.12,0,0,0,.14-4c-.59-1.42,2.49-5.87,3.18-6.26l.67-.32A19.4,19.4,0,0,0,89.73,25a1.6,1.6,0,0,1,.61-.54,3,3,0,0,1,2.37.19l.43.14a3.73,3.73,0,0,0,1-.1c.1-.62.21-1.25.21-1.25a1.4,1.4,0,0,1,1.2-1.16l.11-.06a2.46,2.46,0,0,0-.3-1.2,2,2,0,0,1-.21-.52,4.14,4.14,0,0,1,.87-3.23,8.39,8.39,0,0,0,.8-1.1h0a1.43,1.43,0,0,1-.54-.13l-2.53-1.18a1.38,1.38,0,0,1-.8-1.08,1.41,1.41,0,0,1,.47-1.26,1.58,1.58,0,0,0,.23-.22,11.93,11.93,0,0,0-1.43-.59l-.17-.06a4.33,4.33,0,0,1-2.33-2.17,2.68,2.68,0,0,0-.34-.39c-.38.75-.82,1.46-.94,1.65a1.17,1.17,0,0,1-.31.35,5.6,5.6,0,0,0-.69.69,16,16,0,0,0,.7,1.67,2.61,2.61,0,0,1,1,1.26,1.91,1.91,0,0,1-.22,2.23,1.73,1.73,0,0,1-1.41.46c0,.13,0,.25-.07.37-.2,1.06-.35,1.9-1,2.38a1.78,1.78,0,0,1-1.94.12.23.23,0,0,0-.1-.05,18.67,18.67,0,0,0-2.41.43,1.42,1.42,0,0,1-1.21-.29,1.39,1.39,0,0,1-.51-1.13L80.36,16a1.54,1.54,0,0,1,0-.31L81.68,11a12,12,0,0,0,.38-2.63,1.75,1.75,0,0,0-.79-.63A9.19,9.19,0,0,1,80,7.68c-2.28,12.67-2.83,12.67-4.1,12.67a1.61,1.61,0,0,1-1.12-.51c-.39-.45-.94-1.06,0-9.15l0-3.12a1.41,1.41,0,0,1,.71-1.23c.41-.24,1.29-1,1.34-1.65,0-.34.05-.65.08-.94l0-.34-4.59-.5c0,.14,0,.31,0,.52,0,.76-.13,1.57-.22,2.35s-.19,1.69-.19,2.28h0A2.47,2.47,0,0,1,73.87,9a1.86,1.86,0,0,1,.22,1.61,2.53,2.53,0,0,0-.06.49,3.12,3.12,0,0,1-2.66,3.19c-2.5.42-5.56,1.19-6.73,1.95s-2.27,2.95-2.44,5.21A7,7,0,0,0,64,26.23a4.69,4.69,0,0,0,.84.62,3.63,3.63,0,0,1,2,2.57c0,.36,0,.9,0,1.47A15.51,15.51,0,0,0,67,32.77c.76,1.25,0,3.29-1,4.32,0,.22.1.94,1.07,1.3,4.18,1.53,5.06,2.2,5.36,3a1.55,1.55,0,0,1-.12,1.33,1.41,1.41,0,0,1-1.92.51,1.54,1.54,0,0,1-.59-.68A22.45,22.45,0,0,0,66.05,41a4.37,4.37,0,0,1-2.83-3.08,3,3,0,0,1,.68-2.77,2.48,2.48,0,0,0,.55-1.12,7.26,7.26,0,0,1-.35-3.19c0-.41,0-.8,0-1.09a5.85,5.85,0,0,0-.78-.56,6.77,6.77,0,0,1-1.4-1.1,9.81,9.81,0,0,1-2.51-6.87c.25-3.18,1.71-6.07,3.72-7.36s6.47-2.13,7.78-2.35a.71.71,0,0,0,.25-.07,4.76,4.76,0,0,0,.08-.63v0a4.9,4.9,0,0,1-.78-.19C68.81,10,69,8,69.32,5.47c.09-.73.17-1.49.2-2.17,0-1.14.25-2.52,1.31-3.09A1.77,1.77,0,0,1,72.12.06C73,.15,77,.6,77.84.67a2,2,0,0,1,1.46.73A3.3,3.3,0,0,1,79.72,4c0,.24,0,.5-.07.78a11.48,11.48,0,0,0,1.53.12,4.1,4.1,0,0,1,3.47,2.35c.44,1,.11,2.94-.26,4.41l-1.23,4.56,0,1.26a8.12,8.12,0,0,1,1.07-.13h.43l0-.16A8.8,8.8,0,0,1,85,15.86a1.8,1.8,0,0,1,.77-1,12.83,12.83,0,0,1-1.08-2.64c-.4-1.27.7-2.5,1.53-3.2a12.12,12.12,0,0,0,1-2,1.73,1.73,0,0,1,1.7-1.26c1.34,0,3.06,1.69,3.45,2.75a4.15,4.15,0,0,0,.82.55,10.07,10.07,0,0,1,2.93,1.47A1.9,1.9,0,0,1,96.77,12a2.44,2.44,0,0,1-.25,1l.71.33a3.22,3.22,0,0,1,2.35,1.17c.74,1.07.27,2.59-1.39,4.54a1.12,1.12,0,0,0-.24.74,5.18,5.18,0,0,1,.53,2.49A2.76,2.76,0,0,1,97,24.67l-.16.93a2,2,0,0,1-.9,1.31,5.43,5.43,0,0,1-3.45.57,6.56,6.56,0,0,1-.75-.23l-.27-.1a14.38,14.38,0,0,1-2.41,1.28l-.32.15a20.1,20.1,0,0,0-2,3.39c.26,1.45.41,5.25-.91,6.51a3.16,3.16,0,0,1-2.83.76l-.91.72.08,1.26a1.41,1.41,0,0,1-.13.67l-.55,1.2A1.4,1.4,0,0,1,80.28,43.91ZM69.84,41.36Zm14-4.82ZM64.61,34.3Zm22.08-2.81a1.65,1.65,0,0,1,.08.26A1.53,1.53,0,0,0,86.69,31.49Zm5.53-5.31a0,0,0,0,1,0,0A0,0,0,0,0,92.22,26.18ZM89.69,9.33Zm2.72-.68Z"/><path class="cls-1" d="M108.72,77.47a1.4,1.4,0,0,1-.64-2.65A8.86,8.86,0,0,0,109.3,74a3.64,3.64,0,0,1,1.19-.67,27.94,27.94,0,0,0,2.89-1.15c.78-.79,2.48-1.2,4.46-1.09a5.73,5.73,0,0,0,2.72-.51c.5-.18,1.06-.39,1.76-.58a4,4,0,0,0,2.44-1.45A4.82,4.82,0,0,1,126.59,65a2.92,2.92,0,0,0,.77-2.08,2.43,2.43,0,0,0-1-1c-1.48-.5-2.82-1.7-2.61-3.33A5.46,5.46,0,0,1,125,55.82a9,9,0,0,0,1.23-1.63,11.12,11.12,0,0,1,.74-1.28,12.26,12.26,0,0,0,1.52-3A7.47,7.47,0,0,1,131,46.2a14.86,14.86,0,0,0,1.21-1.28,1.46,1.46,0,0,1,2.2-.75,5.4,5.4,0,0,1,1.73-.9l0,0,.17-.17a11.63,11.63,0,0,0,1.45-1.61,4.11,4.11,0,0,0-.33-1.73,8,8,0,0,0-.74-.78,5.74,5.74,0,0,1-1.93-2.75c-.06-.43-.27-1.74,3.11-4.18a3.77,3.77,0,0,0,.42-.62,4.05,4.05,0,0,0-.87-.6,1.4,1.4,0,0,1-.16-2.46l2.47-1.55.06-.13-.22,0c-1.11.2-3.17.58-4-1.46-.41-.76-3.65-2.56-4.54-2.62h0a5,5,0,0,1-1.18-.17l-.37-.07a1.91,1.91,0,0,0-.1.23c-.59,1.68-.91,2.1-1.69,2.67l-.33.25a5.72,5.72,0,0,0-.91.95l-.12.17a1.86,1.86,0,0,1-1.32.61,1.75,1.75,0,0,0-.46.1c-.47,1.74-3.74,4.8-5.13,6a1.4,1.4,0,0,1-1,.35,19.15,19.15,0,0,1-5.11-1.2c-.48-.2-1-.44-1.51-.7-1.62-.78-3.46-1.66-4.75-1.31-.83.23-1.7.76-1.88,2.9,0,.25,0,.49-.08.72s-.06.59-.07.82a6,6,0,0,1,2.41,1.19l.62.21a1.39,1.39,0,0,1,.91,1.7l-.13.46a1.42,1.42,0,0,1-.68.87l-.31.16a1.79,1.79,0,0,1-1,1.5,2.7,2.7,0,0,1-1,.23l-.41,0a.89.89,0,0,0,0,.15,2,2,0,0,1-1.29,2.32,4.67,4.67,0,0,1-1.29.39,2.28,2.28,0,0,1-1.36,1.58,3,3,0,0,1-2.88-.49,4.62,4.62,0,0,0-1.62-.3c0,.12-.07.24-.1.36a3.13,3.13,0,0,0-.22,1,1.4,1.4,0,0,1-2.79.31,5.29,5.29,0,0,1,.32-2.14,6.21,6.21,0,0,0,.2-.74,1.92,1.92,0,0,1,1.29-1.41,6.25,6.25,0,0,1,4.54.62,2.42,2.42,0,0,1,2.09-1.56l.28-.05a4,4,0,0,1,.07-.87A2.52,2.52,0,0,1,105,38.61a1.61,1.61,0,0,1,.2-.57,3.06,3.06,0,0,0-.89-.34c-2.38-.46-2.12-2.75-2-3.85,0-.2.05-.41.07-.63.3-3.62,2.31-4.92,3.93-5.37,2.3-.64,4.75.54,6.72,1.48.48.24.94.46,1.37.64a15.36,15.36,0,0,0,3.67.92,20.8,20.8,0,0,0,3.8-4.18,3,3,0,0,1,2.63-2.19,8.1,8.1,0,0,1,1.11-1.12c.19-.16.35-.27.48-.37s.31-.23.71-1.35a2.8,2.8,0,0,1,3.7-2,3.56,3.56,0,0,0,.62.1c1.52,0,6.11,2.25,7.07,4.26a7.63,7.63,0,0,0,1-.13,10.39,10.39,0,0,1,1.48-.2,2.05,2.05,0,0,1,1.9.9c.76,1.17.09,2.85-.37,3.76a1.37,1.37,0,0,1-.5.54l-1.1.69a.86.86,0,0,1,.13.14c1.17,1.3.31,3.11-.78,4.26a1.12,1.12,0,0,1-.2.18,12.2,12.2,0,0,0-2,1.72c.24.27.71.74,1,1a7.35,7.35,0,0,1,1.19,1.36,6.72,6.72,0,0,1,.69,3.62c-.11.86-.84,1.73-2.25,3.13a2.4,2.4,0,0,0-.23.23,2.18,2.18,0,0,1-1,.62,2.53,2.53,0,0,0-1,.52,2.27,2.27,0,0,1-2,.6c-.29.33-.68.73-1.21,1.23l-.08.08a5,5,0,0,0-1.61,2.11,13.23,13.23,0,0,1-1.9,3.94c-.22.35-.49.78-.56.93a11.57,11.57,0,0,1-1.73,2.39h0a2.65,2.65,0,0,0-.51,1.18,2.38,2.38,0,0,0,.78.43,1,1,0,0,1,.24.1c.41.21,2.47,1.38,2.6,3.29a5.63,5.63,0,0,1-1.84,4.5,2.1,2.1,0,0,0-.77,1.46c0,1.67-1.85,3.34-4.49,4.06-.6.16-1.09.34-1.54.5a8.46,8.46,0,0,1-3.85.68,4.87,4.87,0,0,0-2.34.3,14.52,14.52,0,0,1-4,1.81c-.1.06-.22.16-.37.27a12.32,12.32,0,0,1-1.61,1A1.3,1.3,0,0,1,108.72,77.47ZM111.28,76l-.11,0Zm4.18-2-.09.1A.45.45,0,0,0,115.46,74.08Zm-2.24-1.69,0,0Zm18.95-27h0Zm0-.06v0Zm0,0Zm3.89-1.91-.08.09Zm2.54-11.77Z"/><path class="cls-1" d="M93,114.22a3,3,0,0,1-2.24-1.43h0a6,6,0,0,1-.72.7c-1.25,1-2.85.7-4.27.42l-.65-.13c-2.17-.38-2.18-2.5-2.18-3.19a2.49,2.49,0,0,0,0-.4,7.6,7.6,0,0,1-.19-4.31,9.12,9.12,0,0,0,.19-1.52A1.39,1.39,0,0,1,84.34,103a1.41,1.41,0,0,1,1.34,1.47,11.78,11.78,0,0,1-.27,2,4.84,4.84,0,0,0,.12,2.78,3.66,3.66,0,0,1,.16,1.28,3.93,3.93,0,0,0,0,.48l.56.11c.64.12,1.72.34,2,.15a4,4,0,0,0,.53-.55c1.13-1.32,2.23-1.54,3.28-.66a5.9,5.9,0,0,1,.88,1l.24.29.1,0c.36-.09,1.31-.34,1.36-.59.37-1.78,2.91-2.82,4.48-3.3a4.52,4.52,0,0,0,1.57-1.2c.56-1.55,3.36-3.08,4.07-3.4a2.2,2.2,0,0,1,1.77-.2,5.6,5.6,0,0,1,.69.38,10,10,0,0,0,1.52.81,5.72,5.72,0,0,0,.27-1,4.56,4.56,0,0,1,.69-1.81c0-.07.15-.33.23-.52a5,5,0,0,1,2.8-3.2,3.42,3.42,0,0,0,.78-.39l-.29-.12a3.31,3.31,0,0,1-1.9-1.42,4.84,4.84,0,0,1-.4-1.09,3,3,0,0,0-.12-.4h0l-.19,0c-1.28.18-2.2.32-3-.32a2.39,2.39,0,0,1-.76-1.81,2.29,2.29,0,0,0-.86-1.2,1.93,1.93,0,0,1-1.59-1.47,2.69,2.69,0,0,1,.94-2.76,3.81,3.81,0,0,0,.41-1.64v-.26a8.15,8.15,0,0,0-.21-1.82,1.4,1.4,0,0,1,.74-2.67c2.11.26,2.22,3,2.27,4.38v.23a5.94,5.94,0,0,1-1.1,3.63,5,5,0,0,1,2.14,3l.58-.08.2,0a2.81,2.81,0,0,1,3.26,2.43,4.79,4.79,0,0,0,.15.48l.44.15A3.51,3.51,0,0,1,116,95.4a2.48,2.48,0,0,1,.34,2.17,3.91,3.91,0,0,1-2.65,2.34c-.58.22-.85.79-1.19,1.63a5,5,0,0,1-.59,1.15,4.62,4.62,0,0,0-.18.72,5.84,5.84,0,0,1-1,2.4c-1.35,1.8-3.77.35-5-.4a8.61,8.61,0,0,0-2.51,1.82c-.51,1.42-2.46,2.46-3,2.75l-.22.08a7.3,7.3,0,0,0-2.67,1.32C96.89,113.25,95,113.75,94,114l-.36.1A2.24,2.24,0,0,1,93,114.22Zm4.4-2.93Zm-11.62-.09h0Zm21.17-22.56Z"/><path class="cls-1" d="M59.08,110.09a2.13,2.13,0,0,1-.39,0c-.19,0-.8-.22-1.58-.46a46.08,46.08,0,0,0-4.76-1.28,3.27,3.27,0,0,1-3-2.13,3,3,0,0,0-1.4-.78c-1.18-.07-2.27-.79-4.43-2.27a13.47,13.47,0,0,1-4.29-6.2,9,9,0,0,0-1.64-2.22c-1-1.21-2.52-3-4.93-6.14-5.44-7-6-10-5.82-12.2,0-.16-.18-.37-.81-.94a13.48,13.48,0,0,1-1.95-2.08,5.12,5.12,0,0,1-.34-5.56,3.2,3.2,0,0,0,.15-.37C24.64,65.26,30,64.7,31,64.75a9.38,9.38,0,0,0,3.54-1.23,2.38,2.38,0,0,1-.49-.81,2,2,0,0,1,.19-1.87,3.53,3.53,0,0,1,.62-.58,2.71,2.71,0,0,0,.4-.33c.55-1,3-4.62,4-5.9,1.7-2.19,4.46-2.19,5.5-2.19.65,0,.65,0,1.07-.71,1.3-2.16,6.4-2,6.45-2a3.65,3.65,0,0,1,2.44,1.59,5.89,5.89,0,0,0,.52.56,1.41,1.41,0,0,1,.3,2.79,3.2,3.2,0,0,1-3-1.54,3.59,3.59,0,0,0-.6-.62,8.41,8.41,0,0,0-3.79.73,3.46,3.46,0,0,1-3.43,2c-1.2,0-2.53.13-3.28,1.1-1.1,1.41-3.51,5.12-3.73,5.54a2,2,0,0,1-.45.61,2.05,2.05,0,0,1-.48,3.61l-.46.24c-1.36.71-3.63,1.92-5.47,1.8a11.63,11.63,0,0,0-4.46,1l-.14.34c-.46,1-.7,1.76,0,2.78a10.48,10.48,0,0,0,1.56,1.65c.87.79,1.86,1.68,1.73,3.26-.08,1-.27,3.19,5.23,10.24,2.39,3.05,3.89,4.87,4.88,6.07,1.38,1.67,1.84,2.23,2.14,3.12a10.64,10.64,0,0,0,3.22,4.77,12.55,12.55,0,0,0,3,1.78,5.25,5.25,0,0,1,3.75,2.34c.27.55.27.55.7.58a36.26,36.26,0,0,1,5.37,1.4l1,.3a1.73,1.73,0,0,0,.46-.77,1.28,1.28,0,0,0-.1-.55,2.42,2.42,0,0,1,.2-2.21c.84-1.26,3-2,5.46-1.84a7.49,7.49,0,0,0,3.32-1.09,1.4,1.4,0,1,1,1.36,2.45,10.1,10.1,0,0,1-4.84,1.44,5.2,5.2,0,0,0-2.8.48,3.76,3.76,0,0,1,.18,1.66,4.5,4.5,0,0,1-1.74,2.83A2.38,2.38,0,0,1,59.08,110.09ZM35.26,60a.73.73,0,0,0,0,.09Z"/><path class="cls-1" d="M78,86.7A7.73,7.73,0,0,1,70.24,79a1.41,1.41,0,0,1,2.81,0A4.91,4.91,0,1,0,78,74.08a7.72,7.72,0,1,1,7.72-7.72,1.41,1.41,0,0,1-2.81,0A4.91,4.91,0,1,0,78,71.27,7.72,7.72,0,1,1,78,86.7Z"/><path class="cls-1" d="M78,89.67a1.4,1.4,0,0,1-1.4-1.4V57.07a1.4,1.4,0,0,1,2.8,0v31.2A1.4,1.4,0,0,1,78,89.67Z"/><path class="cls-1" d="M78,99.81A27.14,27.14,0,1,1,105.1,72.67,27.17,27.17,0,0,1,78,99.81Zm0-51.47a24.33,24.33,0,1,0,24.33,24.33A24.36,24.36,0,0,0,78,48.34Z"/><path class="cls-1" d="M83.94,92.12a1.4,1.4,0,0,1-.44-2.73A17.64,17.64,0,0,0,94.68,67.14a1.4,1.4,0,1,1,2.66-.89,20.44,20.44,0,0,1-13,25.8A1.39,1.39,0,0,1,83.94,92.12Z"/><path class="cls-1" d="M65.24,59.94a1.41,1.41,0,0,1-.94-2.45,20.39,20.39,0,0,1,7.24-4.2A1.41,1.41,0,1,1,72.42,56a17.45,17.45,0,0,0-6.24,3.62A1.4,1.4,0,0,1,65.24,59.94Z"/><path class="cls-1" d="M59.91,80.05a1.4,1.4,0,0,1-1.33-1A20.3,20.3,0,0,1,59.49,64a1.4,1.4,0,0,1,1.86-.68A1.42,1.42,0,0,1,62,65.18a17.55,17.55,0,0,0-.79,13A1.39,1.39,0,0,1,60.35,80,1.31,1.31,0,0,1,59.91,80.05Z"/><path class="cls-1" d="M60,135.74A66.11,66.11,0,0,1,12.47,72.48h6A60.06,60.06,0,0,0,61.71,130Z"/><path class="cls-1" d="M17,72.48H14A64.31,64.31,0,0,1,47.61,15.94l1.44,2.64A61.32,61.32,0,0,0,17,72.48Z"/><path class="cls-1" d="M78.29,140.55a68.1,68.1,0,0,1-18.87-2.65l2.91-10.1a57.6,57.6,0,0,0,73.51-55.32h10.52A68.15,68.15,0,0,1,78.29,140.55Z"/></g></g></svg>