<svg xmlns="http://www.w3.org/2000/svg" viewBox="0 0 152.46 199.37"><defs><style>.cls-1{fill:#041f28;}.cls-2{fill:#f9b233;}.cls-3{fill:#77aad4;}.cls-4{fill:#fe4282;}</style></defs><title>Recurso 9DE</title><g id="Capa_2" data-name="Capa 2"><g id="Capa_1-2" data-name="Capa 1"><path class="cls-1" d="M17.46,149.05a11.07,11.07,0,0,1,7.61,2.45,9.61,9.61,0,0,1,0,13.46,11.07,11.07,0,0,1-7.61,2.45H10.23a.64.64,0,0,1-.74-.71V149.76a.64.64,0,0,1,.74-.71Zm-.1,13.56a4.67,4.67,0,0,0,3.33-1.19,4.67,4.67,0,0,0,0-6.38,4.67,4.67,0,0,0-3.33-1.19h-2.1v8.76Z"/><path class="cls-1" d="M37.16,167.91a8,8,0,0,1-5.6-1.93,6.55,6.55,0,0,1-2.11-5.08,6.71,6.71,0,0,1,2-5.06,7.45,7.45,0,0,1,5.34-1.91,7.4,7.4,0,0,1,5.47,1.9,6.82,6.82,0,0,1,1.9,5v.55c0,.46-.26.68-.79.68H34.59A2.42,2.42,0,0,0,37.21,164a2.12,2.12,0,0,0,1.42-.5,1.57,1.57,0,0,1,.94-.4h3.67a.68.68,0,0,1,.56.21.55.55,0,0,1,.07.55,5.43,5.43,0,0,1-2.41,3A8.16,8.16,0,0,1,37.16,167.91Zm-2.55-8.34h4.75a2.25,2.25,0,0,0-.77-1.43A2.39,2.39,0,0,0,37,157.6a2.47,2.47,0,0,0-1.59.54A2.2,2.2,0,0,0,34.61,159.57Z"/><path class="cls-1" d="M56.27,153.93a5.65,5.65,0,0,1,4.09,1.49,5.27,5.27,0,0,1,1.55,4v7.32a.64.64,0,0,1-.73.71H57.06a.76.76,0,0,1-.53-.2.66.66,0,0,1-.21-.51v-6.06a2.23,2.23,0,0,0-.45-1.49,1.64,1.64,0,0,0-1.3-.53,1.74,1.74,0,0,0-1.34.51,2.12,2.12,0,0,0-.47,1.46v6.11a.64.64,0,0,1-.74.71H47.93a.64.64,0,0,1-.73-.71v-7a1.52,1.52,0,0,0-.17-.85.8.8,0,0,0-.67-.22H46.1c-.51,0-.76-.16-.76-.58v-2.91a.78.78,0,0,1,.57-.79,6.16,6.16,0,0,1,2.44-.39,4.05,4.05,0,0,1,3.54,1.62A5.68,5.68,0,0,1,56.27,153.93Z"/><path class="cls-1" d="M70.38,167.91a9.75,9.75,0,0,1-4.83-1.09,4.24,4.24,0,0,1-2.25-2.95.55.55,0,0,1,.1-.53.82.82,0,0,1,.58-.18h3.44a1.34,1.34,0,0,1,.84.47,2.58,2.58,0,0,0,2.09.66c.89,0,1.34-.22,1.34-.66s-.27-.54-.81-.67a15.42,15.42,0,0,0-2-.32,17.1,17.1,0,0,1-2.29-.44,3.74,3.74,0,0,1-2-1.27,3.93,3.93,0,0,1-.81-2.6,3.68,3.68,0,0,1,1.78-3.19,8.16,8.16,0,0,1,4.67-1.21A9,9,0,0,1,74.9,155a4.22,4.22,0,0,1,2.19,2.85.54.54,0,0,1-.14.52.81.81,0,0,1-.57.18H73a.93.93,0,0,1-.78-.42,1.94,1.94,0,0,0-1.76-.7c-.95,0-1.42.2-1.42.6s.29.55.87.72a15.34,15.34,0,0,0,2.08.43,21.5,21.5,0,0,1,2.45.54,4.33,4.33,0,0,1,2.1,1.33,3.89,3.89,0,0,1-.94,5.74A10,10,0,0,1,70.38,167.91Z"/><path class="cls-1" d="M82,153a3.12,3.12,0,0,1-2.23-.81,2.74,2.74,0,0,1-.87-2.08,2.71,2.71,0,0,1,.87-2,3.38,3.38,0,0,1,4.44,0,2.68,2.68,0,0,1,.88,2,2.71,2.71,0,0,1-.88,2.08A3.12,3.12,0,0,1,82,153Zm-2,14.45a.64.64,0,0,1-.73-.71V155.11c0-.46.24-.68.73-.68H84c.49,0,.74.22.74.68V166.7a.64.64,0,0,1-.74.71Z"/><path class="cls-1" d="M104.68,166.8a.71.71,0,0,1-.58.82,11.13,11.13,0,0,1-2.52.29q-2.81,0-3.9-1.68a5.37,5.37,0,0,1-4.38,1.68A6.55,6.55,0,0,1,88.37,166a7.69,7.69,0,0,1,0-10.1,6.58,6.58,0,0,1,4.93-1.93A5.67,5.67,0,0,1,96.84,155v-6.29a.64.64,0,0,1,.73-.71h4.09a.63.63,0,0,1,.71.71v13.51a1.39,1.39,0,0,0,.18.83.77.77,0,0,0,.63.24,2.25,2.25,0,0,0,.4,0c.47,0,.73.21.78.61Zm-10.41-3a2.32,2.32,0,0,0,1.86-.79,3.71,3.71,0,0,0,0-4.28,2.3,2.3,0,0,0-1.86-.8,2.24,2.24,0,0,0-1.81.81,3.66,3.66,0,0,0,0,4.25A2.24,2.24,0,0,0,94.27,163.84Z"/><path class="cls-1" d="M123.93,166.8a.68.68,0,0,1-.58.82,11.28,11.28,0,0,1-2.41.29c-1.87,0-3.18-.53-3.91-1.53a6.84,6.84,0,0,1-4.48,1.53,6.54,6.54,0,0,1-4.93-1.95,7.69,7.69,0,0,1,0-10.1,6.56,6.56,0,0,1,4.93-1.93,5.41,5.41,0,0,1,3.75,1.28v-.1c0-.46.24-.68.73-.68h3.88c.47,0,.71.22.71.68v7a1.75,1.75,0,0,0,.16.9.64.64,0,0,0,.6.25,3,3,0,0,0,.47,0,.69.69,0,0,1,.79.61Zm-10.41-3a2.33,2.33,0,0,0,1.86-.79,3.71,3.71,0,0,0,0-4.28,2.31,2.31,0,0,0-1.86-.8,2.23,2.23,0,0,0-1.81.81,3.62,3.62,0,0,0,0,4.25A2.23,2.23,0,0,0,113.52,163.84Z"/><path class="cls-1" d="M143,166.8a.71.71,0,0,1-.58.82,11.13,11.13,0,0,1-2.52.29q-2.8,0-3.9-1.68a5.37,5.37,0,0,1-4.38,1.68,6.55,6.55,0,0,1-4.93-1.95,7.69,7.69,0,0,1,0-10.1,6.58,6.58,0,0,1,4.93-1.93,5.67,5.67,0,0,1,3.54,1.07v-6.29a.64.64,0,0,1,.73-.71H140a.63.63,0,0,1,.71.71v13.51a1.39,1.39,0,0,0,.18.83.77.77,0,0,0,.63.24,2.25,2.25,0,0,0,.4,0c.47,0,.73.21.78.61Zm-10.41-3a2.31,2.31,0,0,0,1.86-.79,3.71,3.71,0,0,0,0-4.28,2.28,2.28,0,0,0-1.86-.8,2.24,2.24,0,0,0-1.81.81,3.66,3.66,0,0,0,0,4.25A2.24,2.24,0,0,0,132.58,163.84Z"/><path class="cls-1" d="M14.76,184.32a.62.62,0,0,1-.7.71H5.77v2.49h6.74c.49,0,.73.23.73.68v3a.64.64,0,0,1-.73.71H5.77v2.43h8.29a.62.62,0,0,1,.7.71v3.1a.62.62,0,0,1-.7.7H.73c-.49,0-.73-.23-.73-.7V181.23c0-.48.24-.71.73-.71H14.06a.62.62,0,0,1,.7.71Z"/><path class="cls-1" d="M23.94,199.37a8,8,0,0,1-5.6-1.92,7.15,7.15,0,0,1,0-10.14,8,8,0,0,1,5.6-1.91,7.93,7.93,0,0,1,4.84,1.43,5.75,5.75,0,0,1,2.35,3.84.6.6,0,0,1-.15.53.73.73,0,0,1-.56.2H27a.94.94,0,0,1-.84-.6,2.24,2.24,0,0,0-2.2-1.29,2.6,2.6,0,0,0-2,.79,2.9,2.9,0,0,0-.74,2.07,3,3,0,0,0,.74,2.1,2.6,2.6,0,0,0,2,.79,2.18,2.18,0,0,0,2.2-1.32,1,1,0,0,1,.84-.57h3.41a.76.76,0,0,1,.56.19.63.63,0,0,1,.15.54,5.75,5.75,0,0,1-2.35,3.84A7.93,7.93,0,0,1,23.94,199.37Z"/><path class="cls-1" d="M40.15,199.37a7.91,7.91,0,0,1-5.56-1.92,7.17,7.17,0,0,1,0-10.14,7.91,7.91,0,0,1,5.56-1.91,8,8,0,0,1,5.59,1.91,7.12,7.12,0,0,1,0,10.14A8,8,0,0,1,40.15,199.37Zm0-4.32a2.71,2.71,0,0,0,2-.74,2.91,2.91,0,0,0,0-3.88,2.7,2.7,0,0,0-2-.73,2.59,2.59,0,0,0-1.94.73,2.91,2.91,0,0,0,0,3.88A2.6,2.6,0,0,0,40.15,195.05Z"/><path class="cls-1" d="M59.86,185.4a5.65,5.65,0,0,1,4.1,1.49,5.27,5.27,0,0,1,1.54,4v7.32c0,.47-.24.7-.73.7H60.65a.73.73,0,0,1-.52-.19.66.66,0,0,1-.21-.51v-6.06a2.24,2.24,0,0,0-.46-1.5,1.67,1.67,0,0,0-1.3-.52,1.74,1.74,0,0,0-1.34.51,2.1,2.1,0,0,0-.47,1.46v6.11c0,.47-.24.7-.73.7H51.53c-.49,0-.74-.23-.74-.7v-7a1.52,1.52,0,0,0-.17-.85.8.8,0,0,0-.67-.23h-.26c-.51,0-.76-.15-.76-.57v-2.91a.78.78,0,0,1,.58-.79A6,6,0,0,1,52,185.4,4,4,0,0,1,55.49,187,5.64,5.64,0,0,1,59.86,185.4Z"/><path class="cls-1" d="M74.89,199.37a7.91,7.91,0,0,1-5.56-1.92,7.17,7.17,0,0,1,0-10.14,7.91,7.91,0,0,1,5.56-1.91,8,8,0,0,1,5.6,1.91,7.15,7.15,0,0,1,0,10.14A8,8,0,0,1,74.89,199.37Zm0-4.32a2.71,2.71,0,0,0,2-.74,2.88,2.88,0,0,0,0-3.88,2.7,2.7,0,0,0-2-.73,2.68,2.68,0,1,0,0,5.35Zm-1.7-11a.55.55,0,0,1-.54-.25.58.58,0,0,1,0-.59l1.68-3.2a.84.84,0,0,1,.81-.52h4c.28,0,.47.08.55.25a.54.54,0,0,1-.1.59l-2.2,3.27a.94.94,0,0,1-.84.45Z"/><path class="cls-1" d="M102.9,185.4a5.48,5.48,0,0,1,4,1.49,5.29,5.29,0,0,1,1.52,4v7.32c0,.47-.24.7-.73.7H103.6c-.49,0-.73-.23-.73-.7v-6.06a2.41,2.41,0,0,0-.41-1.5,1.41,1.41,0,0,0-1.16-.52,1.33,1.33,0,0,0-1.11.51,2.37,2.37,0,0,0-.39,1.46v6.11c0,.47-.24.7-.73.7H95c-.49,0-.74-.23-.74-.7v-6.06a2.41,2.41,0,0,0-.4-1.5,1.43,1.43,0,0,0-1.17-.52,1.41,1.41,0,0,0-1.17.51,2.31,2.31,0,0,0-.4,1.46v6.11c0,.47-.25.7-.74.7H86.27c-.49,0-.73-.23-.73-.7v-7a1.52,1.52,0,0,0-.17-.85.82.82,0,0,0-.67-.23h-.27c-.5,0-.76-.15-.76-.57v-2.91a.79.79,0,0,1,.58-.79,6,6,0,0,1,2.44-.39A4,4,0,0,1,90.2,187a5.54,5.54,0,0,1,4.41-1.6,4.77,4.77,0,0,1,4.06,1.75A5.2,5.2,0,0,1,102.9,185.4Z"/><path class="cls-1" d="M113.52,184.43a3.13,3.13,0,0,1-2.23-.82,2.89,2.89,0,0,1,0-4.13,3.42,3.42,0,0,1,4.44,0,2.86,2.86,0,0,1,0,4.13A3.15,3.15,0,0,1,113.52,184.43Zm-2,14.44c-.49,0-.73-.23-.73-.7V186.58c0-.46.24-.69.73-.69h4.09c.49,0,.74.23.74.69v11.59c0,.47-.25.7-.74.7Z"/><path class="cls-1" d="M125.71,199.37a8,8,0,0,1-5.6-1.92,7.15,7.15,0,0,1,0-10.14,9,9,0,0,1,10.44-.48,5.7,5.7,0,0,1,2.34,3.84.57.57,0,0,1-.14.53.73.73,0,0,1-.56.2h-3.41a.94.94,0,0,1-.84-.6,2.25,2.25,0,0,0-2.2-1.29,2.6,2.6,0,0,0-2,.79,2.86,2.86,0,0,0-.75,2.07,2.92,2.92,0,0,0,.75,2.1,2.6,2.6,0,0,0,2,.79,2.18,2.18,0,0,0,2.2-1.32,1,1,0,0,1,.84-.57h3.41a.76.76,0,0,1,.56.19.6.6,0,0,1,.14.54,5.7,5.7,0,0,1-2.34,3.84A8,8,0,0,1,125.71,199.37Z"/><path class="cls-1" d="M152.45,198.27a.65.65,0,0,1-.57.81,10.66,10.66,0,0,1-2.41.29c-1.88,0-3.18-.52-3.91-1.52a6.84,6.84,0,0,1-4.49,1.52,6.56,6.56,0,0,1-4.93-1.94,7.74,7.74,0,0,1,0-10.11,6.62,6.62,0,0,1,4.93-1.92,5.33,5.33,0,0,1,3.75,1.28v-.1c0-.46.25-.69.74-.69h3.88a.62.62,0,0,1,.71.69v7a1.94,1.94,0,0,0,.15.91.69.69,0,0,0,.61.25,3,3,0,0,0,.47,0c.47,0,.73.2.79.6Zm-10.4-3a2.33,2.33,0,0,0,1.86-.79,3.19,3.19,0,0,0,.68-2.15,3.23,3.23,0,0,0-.68-2.14,2.34,2.34,0,0,0-1.86-.8,2.24,2.24,0,0,0-1.81.82,3.62,3.62,0,0,0,0,4.25A2.23,2.23,0,0,0,142.05,195.31Z"/><path class="cls-2" d="M77.1,43.91a1.36,1.36,0,0,1-.58-.13,1.39,1.39,0,0,1-.69-1.86l.4-.88-.1-1.63a1.4,1.4,0,0,1,.52-1.18l2.06-1.65a1.41,1.41,0,0,1,1.5-.16.89.89,0,0,0,.53.06,11.12,11.12,0,0,0,.14-4c-.59-1.42,2.49-5.87,3.18-6.26.11-.06.35-.18.67-.32A18.1,18.1,0,0,0,86.54,25a1.63,1.63,0,0,1,.62-.54,3,3,0,0,1,2.37.19l.42.14a3.7,3.7,0,0,0,1-.1l.22-1.25a1.4,1.4,0,0,1,1.2-1.16l.11-.06a2.46,2.46,0,0,0-.3-1.2,1.46,1.46,0,0,1-.21-.52,4.14,4.14,0,0,1,.87-3.23,8.39,8.39,0,0,0,.8-1.1h0A1.38,1.38,0,0,1,93.1,16l-2.54-1.18a1.39,1.39,0,0,1-.79-1.08,1.41,1.41,0,0,1,.47-1.26,1.58,1.58,0,0,0,.23-.22A12.08,12.08,0,0,0,89,11.67l-.16-.06a4.33,4.33,0,0,1-2.33-2.17,2.3,2.3,0,0,0-.35-.39c-.37.75-.81,1.46-.93,1.65a1.17,1.17,0,0,1-.31.35,5.6,5.6,0,0,0-.69.69,16,16,0,0,0,.7,1.67,2.6,2.6,0,0,1,1,1.26,1.87,1.87,0,0,1-.22,2.23,1.71,1.71,0,0,1-1.4.46c0,.13-.05.25-.07.37-.2,1.06-.35,1.9-1,2.38a1.76,1.76,0,0,1-1.93.12.31.31,0,0,0-.1-.05,18.67,18.67,0,0,0-2.41.43,1.45,1.45,0,0,1-1.22-.29,1.41,1.41,0,0,1-.5-1.13L77.18,16a1.54,1.54,0,0,1,0-.31L78.5,11a12,12,0,0,0,.38-2.63,1.75,1.75,0,0,0-.79-.63,9.19,9.19,0,0,1-1.23-.05C74.58,20.35,74,20.35,72.76,20.35a1.61,1.61,0,0,1-1.12-.51c-.4-.45-.94-1.06,0-9.15l0-3.12a1.41,1.41,0,0,1,.71-1.23c.41-.24,1.29-1,1.34-1.65,0-.34,0-.65.08-.94l0-.34-4.59-.5c0,.14,0,.31,0,.52,0,.76-.12,1.57-.21,2.35s-.19,1.69-.19,2.28h0A2.47,2.47,0,0,1,70.69,9a1.86,1.86,0,0,1,.22,1.61,3.61,3.61,0,0,0-.07.49,3.1,3.1,0,0,1-2.65,3.19c-2.51.42-5.56,1.19-6.74,1.95S59.19,19.2,59,21.46a7,7,0,0,0,1.79,4.77,4.69,4.69,0,0,0,.84.62,3.63,3.63,0,0,1,2.05,2.57c0,.36,0,.9,0,1.47a15.51,15.51,0,0,0,.06,1.88c.76,1.25,0,3.29-1,4.32,0,.22.11.94,1.08,1.3,4.17,1.53,5,2.2,5.36,3a1.55,1.55,0,0,1-.12,1.33,1.41,1.41,0,0,1-1.92.51,1.54,1.54,0,0,1-.59-.68A22.93,22.93,0,0,0,62.87,41,4.35,4.35,0,0,1,60,37.94a3,3,0,0,1,.68-2.77,2.48,2.48,0,0,0,.55-1.12,7.11,7.11,0,0,1-.35-3.19c0-.41,0-.8,0-1.09a5.85,5.85,0,0,0-.78-.56,6.77,6.77,0,0,1-1.4-1.1,9.81,9.81,0,0,1-2.51-6.87c.25-3.18,1.71-6.07,3.72-7.36s6.47-2.13,7.78-2.35a.69.69,0,0,0,.24-.07,3.33,3.33,0,0,0,.09-.63v0a4.9,4.9,0,0,1-.78-.19C65.63,10,65.86,8,66.14,5.47c.08-.73.17-1.49.2-2.17,0-1.14.25-2.52,1.3-3.09a1.79,1.79,0,0,1,1.3-.15c.83.09,4.85.54,5.72.61a2,2,0,0,1,1.46.73A3.3,3.3,0,0,1,76.54,4c0,.24-.05.5-.07.78A11.25,11.25,0,0,0,78,4.93a4.1,4.1,0,0,1,3.47,2.35c.44,1,.1,2.94-.26,4.41L80,16.25l0,1.26A8.12,8.12,0,0,1,81,17.38h.43l0-.16a8.8,8.8,0,0,1,.32-1.36,1.8,1.8,0,0,1,.77-1,12.73,12.73,0,0,1-1.09-2.64C81.07,11,82.17,9.73,83,9a12.94,12.94,0,0,0,1-2,1.73,1.73,0,0,1,1.69-1.26c1.35,0,3.07,1.69,3.46,2.75A3.87,3.87,0,0,0,90,9a10.07,10.07,0,0,1,2.93,1.47A1.93,1.93,0,0,1,93.59,12a2.44,2.44,0,0,1-.25,1l.71.33a3.24,3.24,0,0,1,2.35,1.17c.74,1.07.27,2.59-1.39,4.54a1.12,1.12,0,0,0-.24.74,5.18,5.18,0,0,1,.53,2.49,2.76,2.76,0,0,1-1.46,2.38l-.16.93a2,2,0,0,1-.9,1.31,5.45,5.45,0,0,1-3.46.57,7.17,7.17,0,0,1-.74-.23l-.27-.1a14.81,14.81,0,0,1-2.41,1.28l-.32.15a20.1,20.1,0,0,0-2,3.39c.26,1.45.41,5.25-.91,6.51a3.17,3.17,0,0,1-2.84.76L79,40l.08,1.26a1.41,1.41,0,0,1-.13.67l-.55,1.2A1.41,1.41,0,0,1,77.1,43.91ZM66.66,41.36Zm14-4.82ZM61.43,34.3Zm22.08-2.81c0,.06,0,.15.08.26A1.53,1.53,0,0,0,83.51,31.49ZM89,26.18a0,0,0,0,1,0,0A0,0,0,0,0,89,26.18ZM86.51,9.33Zm2.72-.68Z"/><path class="cls-2" d="M105.54,77.47a1.4,1.4,0,0,1-.64-2.65,9.51,9.51,0,0,0,1.22-.79,3.64,3.64,0,0,1,1.19-.67,27.94,27.94,0,0,0,2.89-1.15c.78-.79,2.48-1.2,4.46-1.09a5.75,5.75,0,0,0,2.72-.51c.5-.18,1.06-.39,1.76-.58a4.05,4.05,0,0,0,2.44-1.45A4.82,4.82,0,0,1,123.41,65a2.92,2.92,0,0,0,.77-2.08,2.47,2.47,0,0,0-1-1c-1.47-.5-2.82-1.7-2.6-3.33a5.49,5.49,0,0,1,1.24-2.81A8.53,8.53,0,0,0,123,54.19a11.47,11.47,0,0,1,.75-1.28,12.63,12.63,0,0,0,1.52-3,7.47,7.47,0,0,1,2.56-3.75,14.86,14.86,0,0,0,1.21-1.28,1.46,1.46,0,0,1,2.2-.75,5.31,5.31,0,0,1,1.73-.9l0,0,.18-.17a11.63,11.63,0,0,0,1.45-1.61,4.11,4.11,0,0,0-.33-1.73,7.16,7.16,0,0,0-.75-.78,5.79,5.79,0,0,1-1.92-2.75c-.06-.43-.27-1.74,3.1-4.18a3.3,3.3,0,0,0,.43-.62,4.35,4.35,0,0,0-.87-.6,1.4,1.4,0,0,1-.16-2.46l2.47-1.55a1.12,1.12,0,0,0,.05-.13l-.21,0c-1.11.2-3.18.58-4-1.46-.41-.76-3.65-2.56-4.54-2.62h0a5,5,0,0,1-1.18-.17l-.37-.07a1.91,1.91,0,0,0-.1.23c-.6,1.68-.91,2.1-1.69,2.67l-.33.25a5.72,5.72,0,0,0-.91.95l-.12.17a1.86,1.86,0,0,1-1.32.61,1.94,1.94,0,0,0-.47.1c-.46,1.74-3.74,4.8-5.12,6a1.4,1.4,0,0,1-1,.35,19.07,19.07,0,0,1-5.11-1.2c-.48-.2-1-.44-1.51-.7-1.63-.78-3.47-1.66-4.75-1.31-.83.23-1.71.76-1.88,2.9,0,.25-.05.49-.08.72s-.07.59-.07.82a6,6,0,0,1,2.41,1.19l.62.21a1.39,1.39,0,0,1,.91,1.7l-.13.46a1.4,1.4,0,0,1-.69.87l-.3.16a1.79,1.79,0,0,1-1,1.5,2.75,2.75,0,0,1-1,.23l-.41,0a.89.89,0,0,0,0,.15,2,2,0,0,1-1.3,2.32,4.61,4.61,0,0,1-1.28.39,2.3,2.3,0,0,1-1.36,1.58,3,3,0,0,1-2.88-.49,4.67,4.67,0,0,0-1.62-.3c0,.12-.07.24-.1.36a3.13,3.13,0,0,0-.22,1,1.41,1.41,0,0,1-1.24,1.55,1.4,1.4,0,0,1-1.55-1.24,5.29,5.29,0,0,1,.32-2.14,6.21,6.21,0,0,0,.2-.74,1.92,1.92,0,0,1,1.29-1.41,6.26,6.26,0,0,1,4.54.62,2.41,2.41,0,0,1,2.09-1.56l.28-.05a3.46,3.46,0,0,1,.07-.87,2.52,2.52,0,0,1,2.22-1.93A1.61,1.61,0,0,1,102,38a3.18,3.18,0,0,0-.89-.34c-2.38-.46-2.12-2.75-2-3.85,0-.2,0-.41.07-.63.3-3.62,2.3-4.92,3.93-5.37,2.3-.64,4.75.54,6.72,1.48.48.24.94.46,1.37.64a15.36,15.36,0,0,0,3.67.92,21.14,21.14,0,0,0,3.8-4.18,3,3,0,0,1,2.63-2.19,8.1,8.1,0,0,1,1.11-1.12c.19-.16.35-.27.48-.37s.31-.23.71-1.35a2.8,2.8,0,0,1,3.7-2,3.62,3.62,0,0,0,.61.1c1.53,0,6.12,2.25,7.08,4.26A7.63,7.63,0,0,0,136,24a10.39,10.39,0,0,1,1.48-.2,2.06,2.06,0,0,1,1.9.9c.76,1.17.09,2.85-.37,3.76a1.44,1.44,0,0,1-.5.54l-1.1.69.13.14c1.17,1.3.31,3.11-.78,4.26a1.18,1.18,0,0,1-.21.18,12.51,12.51,0,0,0-2,1.72c.24.27.71.74,1,1a7.08,7.08,0,0,1,1.2,1.36,6.72,6.72,0,0,1,.69,3.62c-.11.86-.84,1.73-2.25,3.13l-.24.23a2.11,2.11,0,0,1-1,.62,2.64,2.64,0,0,0-1,.52,2.24,2.24,0,0,1-2,.6c-.29.33-.68.73-1.21,1.23l-.08.08a5,5,0,0,0-1.61,2.11,13.23,13.23,0,0,1-1.9,3.94c-.22.35-.5.78-.56.93a11.57,11.57,0,0,1-1.73,2.39h0a2.65,2.65,0,0,0-.51,1.18,2.19,2.19,0,0,0,.78.43,1.22,1.22,0,0,1,.24.1c.41.21,2.47,1.38,2.6,3.29a5.67,5.67,0,0,1-1.84,4.5,2.1,2.1,0,0,0-.77,1.46c0,1.67-1.85,3.34-4.5,4.06-.59.16-1.08.34-1.53.5a8.46,8.46,0,0,1-3.85.68,4.87,4.87,0,0,0-2.34.3,14.52,14.52,0,0,1-4,1.81,4.12,4.12,0,0,0-.37.27,12.32,12.32,0,0,1-1.61,1A1.3,1.3,0,0,1,105.54,77.47ZM108.1,76l-.11,0Zm4.18-2-.09.1ZM110,72.39l0,0Zm19-27h0Zm0-.06v0Zm0,0Zm3.88-1.91-.07.09Zm2.55-11.77Z"/><path class="cls-2" d="M89.77,114.22a3.06,3.06,0,0,1-2.24-1.43h0a5.9,5.9,0,0,1-.71.7c-1.26,1-2.85.7-4.27.42l-.65-.13c-2.17-.38-2.18-2.5-2.18-3.19a2.49,2.49,0,0,0,0-.4,7.51,7.51,0,0,1-.19-4.31,9.12,9.12,0,0,0,.19-1.52,1.4,1.4,0,0,1,2.8.14,10.89,10.89,0,0,1-.26,2,4.75,4.75,0,0,0,.12,2.78,3.66,3.66,0,0,1,.16,1.28,3.93,3.93,0,0,0,0,.48l.56.11c.64.12,1.72.34,2,.15a4,4,0,0,0,.53-.55c1.13-1.32,2.23-1.54,3.28-.66a6.4,6.4,0,0,1,.88,1l.24.29.1,0c.36-.09,1.31-.34,1.36-.59.37-1.78,2.91-2.82,4.48-3.3a4.62,4.62,0,0,0,1.57-1.2c.56-1.55,3.35-3.08,4.07-3.4a2.2,2.2,0,0,1,1.77-.2,5,5,0,0,1,.68.38,9.94,9.94,0,0,0,1.53.81,5.72,5.72,0,0,0,.27-1,4.56,4.56,0,0,1,.69-1.81c0-.07.15-.33.23-.52a5,5,0,0,1,2.8-3.2,3.42,3.42,0,0,0,.78-.39l-.29-.12a3.31,3.31,0,0,1-1.9-1.42,4.84,4.84,0,0,1-.4-1.09c0-.12-.08-.28-.12-.4h0l-.19,0c-1.28.18-2.2.32-3-.32a2.41,2.41,0,0,1-.77-1.81,2.21,2.21,0,0,0-.85-1.2,1.93,1.93,0,0,1-1.59-1.47,2.69,2.69,0,0,1,.94-2.76,3.81,3.81,0,0,0,.41-1.64v-.26a8.15,8.15,0,0,0-.21-1.82,1.39,1.39,0,0,1-.83-1.45A1.41,1.41,0,0,1,103.06,80c2.11.26,2.22,3,2.27,4.38v.23a6,6,0,0,1-1.1,3.63,5,5,0,0,1,2.14,3l.58-.08.19,0a2.81,2.81,0,0,1,3.27,2.43,3.09,3.09,0,0,0,.15.48l.44.15a3.55,3.55,0,0,1,1.81,1.25,2.48,2.48,0,0,1,.34,2.17,3.91,3.91,0,0,1-2.65,2.34c-.59.22-.85.79-1.19,1.63a5,5,0,0,1-.59,1.15,5.79,5.79,0,0,0-.19.72,5.81,5.81,0,0,1-1,2.4c-1.35,1.8-3.78.35-5-.4a8.61,8.61,0,0,0-2.51,1.82c-.51,1.42-2.46,2.46-3,2.75l-.22.08a7.46,7.46,0,0,0-2.68,1.32c-.44,1.87-2.34,2.37-3.36,2.64a2.63,2.63,0,0,0-.36.1A2.25,2.25,0,0,1,89.77,114.22Zm4.41-2.93Zm-11.63-.09h0Zm21.18-22.56Z"/><path class="cls-2" d="M55.9,110.09a2.13,2.13,0,0,1-.39,0c-.19,0-.8-.22-1.58-.46a46.08,46.08,0,0,0-4.76-1.28,3.29,3.29,0,0,1-3-2.13,2.89,2.89,0,0,0-1.39-.78c-1.18-.07-2.27-.79-4.43-2.27s-3.81-4.74-4.29-6.2a9,9,0,0,0-1.64-2.22c-1-1.21-2.52-3-4.93-6.14-5.44-7-6-10-5.82-12.2,0-.16-.18-.37-.81-.94a13.48,13.48,0,0,1-1.95-2.08,5.12,5.12,0,0,1-.34-5.56c.06-.14.11-.26.15-.37.76-2.16,6.13-2.72,7.16-2.67a9.34,9.34,0,0,0,3.53-1.23,2.35,2.35,0,0,1-.48-.81,2,2,0,0,1,.19-1.87,3.53,3.53,0,0,1,.62-.58,4.39,4.39,0,0,0,.4-.33c.55-1,3-4.62,4-5.9,1.7-2.19,4.46-2.19,5.5-2.19.64,0,.64,0,1.07-.71,1.3-2.16,6.4-2,6.45-2a3.65,3.65,0,0,1,2.44,1.59,4.82,4.82,0,0,0,.52.56,1.4,1.4,0,0,1,.29,2.79,3.2,3.2,0,0,1-3-1.54,3.59,3.59,0,0,0-.6-.62,8.45,8.45,0,0,0-3.8.73,3.44,3.44,0,0,1-3.42,2c-1.2,0-2.53.13-3.28,1.1-1.1,1.41-3.51,5.12-3.73,5.54a1.92,1.92,0,0,1-.46.61,2,2,0,0,1-.47,3.61l-.47.24c-1.35.71-3.63,1.92-5.46,1.8a11.58,11.58,0,0,0-4.46,1c0,.1-.09.22-.15.34-.45,1-.69,1.76.05,2.78a10.48,10.48,0,0,0,1.56,1.65c.87.79,1.86,1.68,1.73,3.26-.08,1-.28,3.19,5.23,10.24,2.39,3.05,3.89,4.87,4.88,6.07,1.38,1.67,1.84,2.23,2.14,3.12a10.64,10.64,0,0,0,3.22,4.77,12.75,12.75,0,0,0,3,1.78,5.21,5.21,0,0,1,3.75,2.34c.28.55.28.55.7.58a36,36,0,0,1,5.38,1.4l1,.3a1.73,1.73,0,0,0,.46-.77,1.28,1.28,0,0,0-.1-.55,2.45,2.45,0,0,1,.19-2.21c.84-1.26,3-2,5.47-1.84a7.49,7.49,0,0,0,3.32-1.09,1.4,1.4,0,0,1,1.35,2.45,10,10,0,0,1-4.83,1.44,5.2,5.2,0,0,0-2.8.48,3.76,3.76,0,0,1,.18,1.66,4.5,4.5,0,0,1-1.74,2.83A2.38,2.38,0,0,1,55.9,110.09ZM32.08,60a.73.73,0,0,0,0,.09Z"/><path class="cls-1" d="M74.78,86.7A7.72,7.72,0,0,1,67.06,79a1.41,1.41,0,0,1,2.81,0,4.91,4.91,0,1,0,4.91-4.9,7.72,7.72,0,1,1,7.71-7.72,1.4,1.4,0,0,1-2.8,0,4.91,4.91,0,1,0-4.91,4.91,7.72,7.72,0,0,1,0,15.43Z"/><path class="cls-1" d="M74.78,89.67a1.4,1.4,0,0,1-1.4-1.4V57.07a1.4,1.4,0,0,1,2.8,0v31.2A1.4,1.4,0,0,1,74.78,89.67Z"/><path class="cls-1" d="M74.78,99.81a27.14,27.14,0,1,1,27.14-27.14A27.16,27.16,0,0,1,74.78,99.81Zm0-51.47A24.33,24.33,0,1,0,99.11,72.67,24.36,24.36,0,0,0,74.78,48.34Z"/><path class="cls-1" d="M80.76,92.12a1.4,1.4,0,0,1-.44-2.73A17.62,17.62,0,0,0,91.49,67.14a1.41,1.41,0,0,1,2.67-.89,20.44,20.44,0,0,1-13,25.8A1.39,1.39,0,0,1,80.76,92.12Z"/><path class="cls-1" d="M62.06,59.94a1.41,1.41,0,0,1-.94-2.45,20.39,20.39,0,0,1,7.24-4.2A1.41,1.41,0,0,1,69.24,56,17.45,17.45,0,0,0,63,59.58,1.42,1.42,0,0,1,62.06,59.94Z"/><path class="cls-1" d="M56.73,80.05a1.39,1.39,0,0,1-1.33-1A20.35,20.35,0,0,1,56.3,64a1.4,1.4,0,1,1,2.54,1.19,17.6,17.6,0,0,0-.78,13A1.39,1.39,0,0,1,57.17,80,1.31,1.31,0,0,1,56.73,80.05Z"/><path class="cls-3" d="M56.86,135.74A66.11,66.11,0,0,1,9.29,72.48h6A60.06,60.06,0,0,0,58.52,130Z"/><path class="cls-4" d="M13.79,72.48h-3A64.31,64.31,0,0,1,44.43,15.94l1.44,2.64A61.31,61.31,0,0,0,13.79,72.48Z"/><path class="cls-1" d="M75.1,140.55a68,68,0,0,1-18.86-2.65l2.91-10.1a57.6,57.6,0,0,0,73.51-55.32h10.52A68.15,68.15,0,0,1,75.1,140.55Z"/></g></g></svg>